<svg xmlns="http://www.w3.org/2000/svg" xmlns:xlink="http://www.w3.org/1999/xlink" width="5000" zoomAndPan="magnify" viewBox="0 0 3750 3749.999967" height="5000" preserveAspectRatio="xMidYMid meet" version="1.0"><defs><g/><clipPath id="9701a5544e"><path d="M 3552.632812 2319.429688 L 3739.214844 2319.429688 L 3739.214844 2506.015625 L 3552.632812 2506.015625 Z M 3552.632812 2319.429688 " clip-rule="nonzero"/></clipPath><clipPath id="44152110fd"><path d="M 356.117188 376 L 3367.679688 376 L 3367.679688 1085 L 356.117188 1085 Z M 356.117188 376 " clip-rule="nonzero"/></clipPath><clipPath id="87cf8f14cc"><path d="M 356.164062 2569 L 3367.726562 2569 L 3367.726562 3278 L 356.164062 3278 Z M 356.164062 2569 " clip-rule="nonzero"/></clipPath><clipPath id="9af1d42828"><path d="M 3545.378906 2319.429688 L 3739.351562 2319.429688 L 3739.351562 2513.402344 L 3545.378906 2513.402344 Z M 3545.378906 2319.429688 " clip-rule="nonzero"/></clipPath><clipPath id="6f73fc4c71"><path d="M 3642.363281 2319.429688 C 3588.800781 2319.429688 3545.378906 2362.851562 3545.378906 2416.417969 C 3545.378906 2469.980469 3588.800781 2513.402344 3642.363281 2513.402344 C 3695.929688 2513.402344 3739.351562 2469.980469 3739.351562 2416.417969 C 3739.351562 2362.851562 3695.929688 2319.429688 3642.363281 2319.429688 Z M 3642.363281 2319.429688 " clip-rule="nonzero"/></clipPath></defs><g clip-path="url(#9701a5544e)"><path fill="#ffffff" d="M 3739.316406 2412.761719 C 3739.316406 2464.347656 3697.53125 2506.136719 3645.984375 2506.136719 C 3617.101562 2506.136719 3591.328125 2493.03125 3574.207031 2472.433594 C 3561.414062 2457.058594 3553.484375 2437.5 3552.734375 2416.144531 C 3552.691406 2415.039062 3552.652344 2413.878906 3552.652344 2412.761719 C 3552.652344 2361.222656 3594.4375 2319.429688 3645.984375 2319.429688 C 3656.582031 2319.429688 3666.742188 2321.183594 3676.222656 2324.449219 C 3695.898438 2331.179688 3712.585938 2344.285156 3723.859375 2361.335938 C 3733.617188 2376.078125 3739.316406 2393.761719 3739.316406 2412.761719 " fill-opacity="1" fill-rule="nonzero"/></g><g fill="#000000" fill-opacity="1"><g transform="translate(-81.642145, 1904.217761)"><g><path d="M 817.328125 -789.140625 L 817.328125 0 L 634.703125 0 L 634.703125 -323.5625 L 276.203125 -323.5625 L 276.203125 0 L 93.578125 0 L 93.578125 -789.140625 L 276.203125 -789.140625 L 276.203125 -478 L 634.703125 -478 L 634.703125 -789.140625 Z M 817.328125 -789.140625 "/></g></g></g><g fill="#000000" fill-opacity="1"><g transform="translate(763.88229, 1904.217761)"><g><path d="M 613.28125 -169.109375 L 246.890625 -169.109375 L 177 0 L -10.140625 0 L 341.59375 -789.140625 L 521.953125 -789.140625 L 874.828125 0 L 683.171875 0 Z M 555.78125 -307.765625 L 430.65625 -609.890625 L 305.515625 -307.765625 Z M 555.78125 -307.765625 "/></g></g></g><g fill="#000000" fill-opacity="1"><g transform="translate(1562.05711, 1904.217761)"><g><path d="M 673.03125 -410.359375 C 718.125 -396.078125 753.445312 -372.210938 779 -338.765625 C 804.550781 -305.328125 817.328125 -264.179688 817.328125 -215.328125 C 817.328125 -146.179688 790.457031 -93.003906 736.71875 -55.796875 C 682.976562 -18.597656 604.632812 0 501.6875 0 L 93.578125 0 L 93.578125 -789.140625 L 479.140625 -789.140625 C 575.328125 -789.140625 649.160156 -770.722656 700.640625 -733.890625 C 752.128906 -697.066406 777.875 -647.09375 777.875 -583.96875 C 777.875 -545.632812 768.664062 -511.4375 750.25 -481.375 C 731.832031 -451.320312 706.09375 -427.648438 673.03125 -410.359375 Z M 275.078125 -651.609375 L 275.078125 -465.609375 L 456.59375 -465.609375 C 501.675781 -465.609375 535.863281 -473.492188 559.15625 -489.265625 C 582.457031 -505.046875 594.109375 -528.34375 594.109375 -559.15625 C 594.109375 -589.976562 582.457031 -613.09375 559.15625 -628.5 C 535.863281 -643.90625 501.675781 -651.609375 456.59375 -651.609375 Z M 488.15625 -137.546875 C 536.25 -137.546875 572.503906 -145.4375 596.921875 -161.21875 C 621.347656 -177 633.5625 -201.425781 633.5625 -234.5 C 633.5625 -299.882812 585.09375 -332.578125 488.15625 -332.578125 L 275.078125 -332.578125 L 275.078125 -137.546875 Z M 488.15625 -137.546875 "/></g></g></g><g fill="#000000" fill-opacity="1"><g transform="translate(2359.104746, 1904.217761)"><g><path d="M 93.578125 -789.140625 L 276.203125 -789.140625 L 276.203125 0 L 93.578125 0 Z M 93.578125 -789.140625 "/></g></g></g><g fill="#000000" fill-opacity="1"><g transform="translate(2663.49341, 1904.217761)"><g><path d="M 673.03125 -410.359375 C 718.125 -396.078125 753.445312 -372.210938 779 -338.765625 C 804.550781 -305.328125 817.328125 -264.179688 817.328125 -215.328125 C 817.328125 -146.179688 790.457031 -93.003906 736.71875 -55.796875 C 682.976562 -18.597656 604.632812 0 501.6875 0 L 93.578125 0 L 93.578125 -789.140625 L 479.140625 -789.140625 C 575.328125 -789.140625 649.160156 -770.722656 700.640625 -733.890625 C 752.128906 -697.066406 777.875 -647.09375 777.875 -583.96875 C 777.875 -545.632812 768.664062 -511.4375 750.25 -481.375 C 731.832031 -451.320312 706.09375 -427.648438 673.03125 -410.359375 Z M 275.078125 -651.609375 L 275.078125 -465.609375 L 456.59375 -465.609375 C 501.675781 -465.609375 535.863281 -473.492188 559.15625 -489.265625 C 582.457031 -505.046875 594.109375 -528.34375 594.109375 -559.15625 C 594.109375 -589.976562 582.457031 -613.09375 559.15625 -628.5 C 535.863281 -643.90625 501.675781 -651.609375 456.59375 -651.609375 Z M 488.15625 -137.546875 C 536.25 -137.546875 572.503906 -145.4375 596.921875 -161.21875 C 621.347656 -177 633.5625 -201.425781 633.5625 -234.5 C 633.5625 -299.882812 585.09375 -332.578125 488.15625 -332.578125 L 275.078125 -332.578125 L 275.078125 -137.546875 Z M 488.15625 -137.546875 "/></g></g></g><g fill="#000000" fill-opacity="1"><g transform="translate(1951.84691, 2499.206255)"><g><path d="M 473.046875 -134.640625 L 180.421875 -134.640625 L 98.734375 0 L -56.546875 0 L 350.078125 -628.34375 L 493.6875 -628.34375 L 648.078125 0 L 502.671875 0 Z M 448.8125 -245.046875 L 395.859375 -487.40625 L 247.75 -245.046875 Z M 448.8125 -245.046875 "/></g></g></g><g fill="#000000" fill-opacity="1"><g transform="translate(2587.358998, 2499.206255)"><g><path d="M 271.984375 7.1875 C 222.316406 7.1875 178.929688 -1.785156 141.828125 -19.734375 C 104.722656 -37.691406 76.144531 -62.976562 56.09375 -95.59375 C 36.050781 -128.207031 26.03125 -166.054688 26.03125 -209.140625 C 26.03125 -262.398438 38.597656 -310.273438 63.734375 -352.765625 C 88.867188 -395.253906 123.875 -428.765625 168.75 -453.296875 C 213.632812 -477.835938 264.203125 -490.109375 320.453125 -490.109375 C 371.910156 -490.109375 416.335938 -479.484375 453.734375 -458.234375 C 491.140625 -436.992188 519.117188 -406.925781 537.671875 -368.03125 L 419.1875 -308.78125 C 398.25 -352.46875 362.34375 -374.3125 311.46875 -374.3125 C 283.945312 -374.3125 259.265625 -367.578125 237.421875 -354.109375 C 215.578125 -340.648438 198.519531 -321.953125 186.25 -298.015625 C 173.988281 -274.078125 167.859375 -246.847656 167.859375 -216.328125 C 167.859375 -183.410156 177.726562 -157.226562 197.46875 -137.78125 C 217.21875 -118.332031 244.75 -108.609375 280.0625 -108.609375 C 331.519531 -108.609375 371.015625 -130.148438 398.546875 -173.234375 L 501.765625 -108.609375 C 478.429688 -72.109375 446.566406 -43.679688 406.171875 -23.328125 C 365.773438 -2.984375 321.046875 7.1875 271.984375 7.1875 Z M 271.984375 7.1875 "/></g></g></g><g fill="#000000" fill-opacity="1"><g transform="translate(3065.788053, 2499.206255)"><g><path d="M 207.34375 -170.546875 C 206.15625 -165.765625 205.5625 -159.179688 205.5625 -150.796875 C 205.5625 -119.679688 222.613281 -104.125 256.71875 -104.125 C 275.269531 -104.125 294.117188 -109.804688 313.265625 -121.171875 L 333.921875 -21.546875 C 302.796875 -2.390625 262.703125 7.1875 213.640625 7.1875 C 168.160156 7.1875 131.65625 -4.78125 104.125 -28.71875 C 76.59375 -52.65625 62.828125 -85.570312 62.828125 -127.46875 C 62.828125 -139.4375 64.328125 -153.5 67.328125 -169.65625 L 105.921875 -364.4375 L 31.421875 -364.4375 L 52.953125 -472.15625 L 127.46875 -472.15625 L 150.796875 -589.734375 L 290.828125 -589.734375 L 267.5 -472.15625 L 387.78125 -472.15625 L 366.234375 -364.4375 L 245.953125 -364.4375 Z M 207.34375 -170.546875 "/></g></g></g><g fill="#000000" fill-opacity="1"><g transform="translate(3404.194899, 2499.206255)"><g/></g></g><g clip-path="url(#44152110fd)"><path fill="#000000" d="M 3294.828125 1084.761719 L 3357.445312 1084.761719 C 3359.851562 957.207031 3362.261719 814.007812 3364.667969 656.96875 C 3365.269531 617.859375 3365.875 577.546875 3366.476562 537.234375 C 3366.476562 516.777344 3367.078125 496.320312 3367.078125 475.261719 C 3367.078125 457.8125 3367.078125 440.363281 3367.679688 422.3125 C 3367.679688 412.6875 3367.679688 403.0625 3367.679688 392.832031 L 3367.679688 377.1875 L 3353.832031 377.1875 C 3320.71875 377.1875 3287.605469 377.789062 3253.886719 377.789062 C 3232.214844 377.789062 3210.539062 377.789062 3188.863281 377.789062 C 3144.914062 377.789062 3100.359375 377.789062 3055.203125 377.789062 C 2693.960938 377.1875 2289.367188 377.1875 1861.898438 376.585938 C 1435.03125 377.1875 1030.4375 377.1875 668.59375 377.789062 C 623.4375 377.789062 578.882812 377.789062 534.933594 377.789062 C 513.257812 377.789062 491.582031 377.789062 469.910156 377.789062 C 436.191406 377.789062 403.078125 377.1875 369.964844 377.1875 L 356.117188 377.1875 L 356.117188 392.832031 C 356.117188 402.457031 356.117188 412.085938 356.117188 422.3125 C 356.117188 439.761719 356.117188 457.210938 356.71875 475.261719 C 356.71875 496.320312 357.320312 516.777344 357.320312 537.234375 C 357.921875 578.148438 358.527344 617.859375 359.128906 656.96875 C 361.535156 813.40625 363.945312 957.207031 366.351562 1084.761719 L 428.96875 1084.761719 C 431.375 957.207031 433.785156 814.007812 436.191406 656.96875 C 436.796875 617.859375 437.398438 577.546875 438 537.234375 C 438 516.777344 438.601562 496.320312 438.601562 475.261719 L 438.601562 461.421875 C 438.601562 461.421875 439.203125 461.421875 439.804688 461.421875 L 444.621094 462.023438 L 451.847656 462.023438 C 457.265625 462.023438 462.683594 462.023438 468.101562 462.625 C 489.777344 463.226562 511.453125 463.828125 533.125 463.828125 C 577.078125 464.433594 621.632812 465.636719 666.785156 466.238281 C 1028.632812 472.253906 1433.222656 474.660156 1860.695312 474.660156 C 2288.164062 474.660156 2692.757812 472.253906 3054.601562 466.238281 C 3099.757812 465.636719 3144.3125 464.433594 3188.261719 463.828125 C 3209.9375 463.226562 3232.214844 462.625 3253.285156 462.625 C 3258.703125 462.625 3264.125 462.625 3269.542969 462.023438 L 3276.765625 462.023438 L 3281.582031 461.421875 C 3282.183594 461.421875 3282.789062 461.421875 3282.789062 461.421875 L 3282.789062 475.261719 C 3282.789062 496.320312 3283.390625 516.777344 3283.390625 537.234375 C 3283.992188 578.148438 3284.59375 617.859375 3285.195312 656.96875 C 3290.011719 814.007812 3292.421875 957.207031 3294.828125 1084.761719 Z M 3294.828125 1084.761719 " fill-opacity="1" fill-rule="nonzero"/></g><g clip-path="url(#87cf8f14cc)"><path fill="#000000" d="M 429.011719 2569.390625 L 366.398438 2569.390625 C 363.988281 2696.945312 361.582031 2840.144531 359.171875 2997.179688 C 358.570312 3036.289062 357.96875 3076.601562 357.367188 3116.914062 C 357.367188 3137.371094 356.765625 3157.828125 356.765625 3178.886719 C 356.765625 3196.335938 356.765625 3213.785156 356.164062 3231.835938 C 356.164062 3241.460938 356.164062 3251.089844 356.164062 3261.316406 L 356.164062 3276.960938 L 370.011719 3276.960938 C 403.125 3276.960938 436.238281 3276.359375 469.953125 3276.359375 C 491.628906 3276.359375 513.304688 3276.359375 534.976562 3276.359375 C 578.929688 3276.359375 623.484375 3276.359375 668.636719 3276.359375 C 1029.882812 3276.960938 1434.472656 3276.960938 1861.945312 3277.5625 C 2288.8125 3276.960938 2693.40625 3276.960938 3055.25 3276.359375 C 3100.40625 3276.359375 3144.957031 3276.359375 3188.910156 3276.359375 C 3210.585938 3276.359375 3232.257812 3276.359375 3253.933594 3276.359375 C 3287.648438 3276.359375 3320.761719 3276.960938 3353.878906 3276.960938 L 3367.726562 3276.960938 L 3367.726562 3261.316406 C 3367.726562 3251.691406 3367.726562 3242.0625 3367.726562 3231.835938 C 3367.726562 3214.386719 3367.726562 3196.9375 3367.121094 3178.886719 C 3367.121094 3157.828125 3366.519531 3137.371094 3366.519531 3116.914062 C 3365.917969 3076 3365.316406 3036.289062 3364.714844 2997.179688 C 3362.304688 2840.746094 3359.898438 2696.945312 3357.488281 2569.390625 L 3294.875 2569.390625 C 3292.464844 2696.945312 3290.058594 2840.144531 3287.648438 2997.179688 C 3287.046875 3036.289062 3286.445312 3076.601562 3285.84375 3116.914062 C 3285.84375 3137.371094 3285.242188 3157.828125 3285.242188 3178.886719 L 3285.242188 3192.726562 C 3285.242188 3192.726562 3284.640625 3192.726562 3284.035156 3192.726562 L 3279.21875 3192.125 L 3271.996094 3192.125 C 3266.578125 3192.125 3261.15625 3192.125 3255.738281 3191.523438 C 3234.066406 3190.921875 3212.390625 3190.320312 3190.714844 3190.320312 C 3146.765625 3189.71875 3102.210938 3188.515625 3057.054688 3187.914062 C 2695.210938 3181.894531 2290.617188 3179.488281 1863.148438 3179.488281 C 1435.675781 3179.488281 1031.085938 3181.894531 669.238281 3187.914062 C 624.085938 3188.515625 579.53125 3189.71875 535.578125 3190.320312 C 513.90625 3190.921875 491.628906 3191.523438 470.554688 3191.523438 C 465.136719 3191.523438 459.71875 3191.523438 454.300781 3192.125 L 447.074219 3192.125 L 442.257812 3192.726562 C 441.65625 3192.726562 441.054688 3192.726562 441.054688 3192.726562 L 441.054688 3178.886719 C 441.054688 3157.828125 440.453125 3137.371094 440.453125 3116.914062 C 439.851562 3076 439.25 3036.289062 438.644531 2997.179688 C 433.828125 2840.144531 431.421875 2696.945312 429.011719 2569.390625 Z M 429.011719 2569.390625 " fill-opacity="1" fill-rule="nonzero"/></g><g clip-path="url(#9af1d42828)"><g clip-path="url(#6f73fc4c71)"><path fill="#ffffff" d="M 3545.378906 2319.429688 L 3739.351562 2319.429688 L 3739.351562 2513.402344 L 3545.378906 2513.402344 Z M 3545.378906 2319.429688 " fill-opacity="1" fill-rule="nonzero"/></g></g><g fill="#000000" fill-opacity="1"><g transform="translate(3460.263346, 1904.974701)"><g><path d="M 93.578125 -789.15625 L 276.203125 -789.15625 L 276.203125 0 L 93.578125 0 Z M 93.578125 -789.15625 "/></g></g></g><g fill="#000000" fill-opacity="1"><g transform="translate(3460.263346, 2269.142402)"><g><path d="M 93.578125 -789.15625 L 276.203125 -789.15625 L 276.203125 0 L 93.578125 0 Z M 93.578125 -789.15625 "/></g></g></g><g fill="#000000" fill-opacity="1"><g transform="translate(-10.440909, 2357.29354)"><g><path d="M 275.574219 0 C 225.351562 0 182.480469 -9.367188 146.960938 -28.105469 C 111.441406 -46.839844 84.441406 -73.835938 65.964844 -109.097656 C 47.492188 -144.359375 38.253906 -186.058594 38.253906 -234.199219 L 38.253906 -312.265625 L 112.804688 -312.265625 L 112.804688 -234.199219 C 112.804688 -181.632812 126.664062 -141.886719 154.375 -114.953125 C 182.089844 -88.019531 222.488281 -74.554688 275.574219 -74.554688 L 351.300781 -74.554688 L 351.300781 -178.382812 C 351.300781 -225.480469 359.496094 -264.710938 375.890625 -296.066406 C 392.285156 -327.421875 416.289062 -350.972656 447.90625 -366.71875 C 479.523438 -382.460938 518.101562 -390.332031 563.640625 -390.332031 L 660.832031 -390.332031 L 660.832031 -150.277344 C 660.832031 -126.597656 665.644531 -108.058594 675.273438 -94.65625 C 684.902344 -81.253906 699.605469 -74.554688 719.382812 -74.554688 L 738.898438 -74.554688 L 738.898438 0 L 719.382812 0 C 691.019531 0 666.816406 -6.179688 646.78125 -18.539062 C 626.742188 -30.902344 611.585938 -48.335938 601.304688 -70.84375 C 591.027344 -93.355469 585.886719 -119.832031 585.886719 -150.277344 L 585.886719 -317.339844 L 564.808594 -317.339844 C 516.929688 -317.339844 481.800781 -306.28125 459.421875 -284.160156 C 437.042969 -262.042969 425.851562 -226.914062 425.851562 -178.773438 L 425.851562 0 Z M 238.175781 155.742188 C 226.003906 155.742188 215.464844 151.320312 206.558594 142.472656 C 197.664062 133.625 193.214844 122.953125 193.214844 110.464844 C 193.214844 98.308594 197.65625 87.785156 206.535156 78.894531 C 215.421875 70.015625 225.945312 65.574219 238.101562 65.574219 C 250.59375 65.574219 261.261719 70.023438 270.109375 78.921875 C 278.957031 87.824219 283.382812 98.363281 283.382812 110.539062 C 283.382812 122.71875 278.890625 133.296875 269.914062 142.277344 C 260.9375 151.253906 250.355469 155.742188 238.175781 155.742188 Z M 373.230469 155.742188 C 361.058594 155.742188 350.519531 151.320312 341.613281 142.472656 C 332.71875 133.625 328.269531 122.953125 328.269531 110.464844 C 328.269531 98.308594 332.710938 87.785156 341.589844 78.894531 C 350.476562 70.015625 361 65.574219 373.15625 65.574219 C 385.648438 65.574219 396.382812 70.023438 405.359375 78.921875 C 414.335938 87.824219 418.828125 98.363281 418.828125 110.539062 C 418.828125 122.71875 414.273438 133.296875 405.164062 142.277344 C 396.058594 151.253906 385.414062 155.742188 373.230469 155.742188 Z M 373.230469 155.742188 "/></g></g></g><g fill="#000000" fill-opacity="1"><g transform="translate(721.040115, 2357.29354)"><g><path d="M -7.808594 -74.554688 L 13.269531 -74.554688 C 33.828125 -74.554688 49.183594 -81.515625 59.332031 -95.4375 C 69.480469 -109.359375 74.554688 -128.679688 74.554688 -153.402344 L 74.554688 -390.332031 L 149.496094 -390.332031 L 149.496094 -153.402344 C 149.496094 -128.679688 154.570312 -109.359375 164.71875 -95.4375 C 174.867188 -81.515625 190.222656 -74.554688 210.78125 -74.554688 L 231.855469 -74.554688 L 231.855469 0 L 210.78125 0 C 166.28125 0 133.492188 -17.695312 112.414062 -53.085938 C 90.558594 -17.695312 57.507812 0 13.269531 0 L -7.808594 0 Z M 110.855469 153.789062 C 98.101562 153.789062 87.175781 149.300781 78.066406 140.324219 C 68.957031 131.347656 64.40625 120.351562 64.40625 107.339844 C 64.40625 94.332031 68.957031 83.269531 78.066406 74.164062 C 87.175781 65.054688 98.101562 60.5 110.855469 60.5 C 123.867188 60.5 134.925781 65.121094 144.03125 74.359375 C 153.140625 83.597656 157.695312 94.589844 157.695312 107.339844 C 157.695312 120.09375 153.140625 131.019531 144.03125 140.128906 C 134.925781 149.238281 123.867188 153.789062 110.855469 153.789062 Z M 110.855469 153.789062 "/></g></g></g><g fill="#000000" fill-opacity="1"><g transform="translate(945.090316, 2357.29354)"><g><path d="M -7.808594 -74.554688 L 43.328125 -74.554688 C 63.625 -74.554688 78.914062 -81.515625 89.191406 -95.4375 C 99.46875 -109.359375 104.609375 -128.679688 104.609375 -153.402344 L 104.609375 -389.941406 L 179.164062 -390.332031 L 179.164062 -153.402344 C 179.164062 -128.679688 184.300781 -109.359375 194.582031 -95.4375 C 204.859375 -81.515625 220.277344 -74.554688 240.835938 -74.554688 L 292.359375 -74.554688 L 292.359375 0 L 240.835938 0 C 196.335938 0 163.417969 -17.695312 142.082031 -53.085938 C 120.222656 -17.695312 87.304688 0 43.328125 0 L -7.808594 0 Z M 76.1875 155.742188 C 64.015625 155.742188 53.476562 151.320312 44.570312 142.472656 C 35.675781 133.625 31.226562 122.953125 31.226562 110.464844 C 31.226562 98.308594 35.667969 87.785156 44.546875 78.894531 C 53.433594 70.015625 63.957031 65.574219 76.113281 65.574219 C 88.605469 65.574219 99.273438 70.023438 108.121094 78.921875 C 116.96875 87.824219 121.394531 98.363281 121.394531 110.539062 C 121.394531 122.71875 116.90625 133.296875 107.925781 142.277344 C 98.949219 151.253906 88.371094 155.742188 76.1875 155.742188 Z M 208.511719 155.742188 C 196.335938 155.742188 185.796875 151.320312 176.894531 142.472656 C 167.996094 133.625 163.550781 122.953125 163.550781 110.464844 C 163.550781 98.308594 167.996094 87.785156 176.894531 78.894531 C 185.796875 70.015625 196.335938 65.574219 208.511719 65.574219 C 220.691406 65.574219 231.273438 70.023438 240.25 78.921875 C 249.226562 87.824219 253.714844 98.363281 253.714844 110.539062 C 253.714844 122.71875 249.226562 133.296875 240.25 142.277344 C 231.273438 151.253906 220.691406 155.742188 208.511719 155.742188 Z M 208.511719 155.742188 "/></g></g></g><g fill="#000000" fill-opacity="1"><g transform="translate(1230.03218, 2357.29354)"><g><path d="M -7.808594 -74.554688 L 13.269531 -74.554688 C 33.828125 -74.554688 49.183594 -81.515625 59.332031 -95.4375 C 69.480469 -109.359375 74.554688 -128.679688 74.554688 -153.402344 L 74.554688 -390.332031 L 149.496094 -390.332031 L 149.496094 -153.402344 C 149.496094 -128.679688 154.570312 -109.359375 164.71875 -95.4375 C 174.867188 -81.515625 190.222656 -74.554688 210.78125 -74.554688 L 231.855469 -74.554688 L 231.855469 0 L 210.78125 0 C 166.28125 0 133.492188 -17.695312 112.414062 -53.085938 C 90.558594 -17.695312 57.507812 0 13.269531 0 L -7.808594 0 Z M 110.855469 153.789062 C 98.101562 153.789062 87.175781 149.300781 78.066406 140.324219 C 68.957031 131.347656 64.40625 120.351562 64.40625 107.339844 C 64.40625 94.332031 68.957031 83.269531 78.066406 74.164062 C 87.175781 65.054688 98.101562 60.5 110.855469 60.5 C 123.867188 60.5 134.925781 65.121094 144.03125 74.359375 C 153.140625 83.597656 157.695312 94.589844 157.695312 107.339844 C 157.695312 120.09375 153.140625 131.019531 144.03125 140.128906 C 134.925781 149.238281 123.867188 153.789062 110.855469 153.789062 Z M 110.855469 153.789062 "/></g></g></g><g fill="#000000" fill-opacity="1"><g transform="translate(1454.082381, 2357.29354)"><g><path d="M -7.808594 -74.554688 L 390.332031 -74.554688 L 389.941406 -128.808594 C 389.679688 -166.542969 381.746094 -199.460938 366.132812 -227.5625 C 350.519531 -255.667969 328.59375 -277.394531 300.359375 -292.75 C 272.125 -308.101562 239.402344 -315.777344 202.191406 -315.777344 L 44.109375 -315.777344 L 44.109375 -390.332031 L 205.703125 -390.332031 C 254.625 -390.332031 298.734375 -379.46875 338.027344 -357.738281 C 377.320312 -336.011719 408.15625 -305.5 430.535156 -266.207031 C 452.914062 -226.914062 464.234375 -182.285156 464.496094 -132.324219 L 465.277344 -74.554688 L 465.277344 0 L -7.808594 0 Z M -7.808594 -74.554688 "/></g></g></g></svg>